<svg id="Livello_1" data-name="Livello 1" xmlns="http://www.w3.org/2000/svg" viewBox="0 0 138.19 205.2"><defs><style>.cls-1{fill:#fefefe;}.cls-2{fill:#f78173;}.cls-3{fill:#f78073;}.cls-4{fill:#f6756f;}.cls-5{fill:#f78977;}.cls-6{fill:#f8927c;}.cls-7{fill:#f8917c;}.cls-8{fill:#f8a88a;}.cls-9{fill:#f9b490;}.cls-10{fill:#f9ad8c;}.cls-11{fill:#f78877;}.cls-12{fill:#f9b893;}.cls-13{fill:#f78274;}.cls-14{fill:#f8977f;}.cls-15{fill:#f8917b;}.cls-16{fill:#f89f84;}.cls-17{fill:#fef8f7;}.cls-18{fill:#fef7f6;}.cls-19{fill:#fefaf9;}</style></defs><title>logoCont</title><path class="cls-1" d="M387,345.46q0,49.46.05,98.92c0,2.66-.11,3.74-3.43,3.73q-65.7-.24-131.4,0c-2.84,0-3.3-.65-3.29-3.36q.13-99.18,0-198.35c0-3.36,1.12-3.42,3.74-3.42q65.44.11,130.9,0c3.07,0,3.56.72,3.55,3.62C387,279.5,387,312.48,387,345.46Z" transform="translate(-248.89 -242.91)"/><path class="cls-2" d="M276.87,314c1.73-4,3.82-7.78,2.21-12.46-.66-1.91.56-3.88,1.63-5.58s2.29-3.5,4.18-.51a5.22,5.22,0,0,0,3.62,2.46c1.26.16,2.94.74,3.59-.77.88-2-1.08-1.78-2.2-2.3-3.84-1.79-4.9-5.4-2.81-9.11.85-1.5,2-2.91,3.76-3,2.13-.09,1.57,2.15,2,3.33a10.43,10.43,0,0,0,8.09,6.62,2,2,0,0,0,2.45-1.21c.47-1.22-.47-2-1.43-2.16-4.28-.77-6.51-3.16-6.11-7.58s3.55-6.21,7.16-7.34c4.15-1.3,7.53.53,10.19,3.55a12,12,0,0,1,2.77,8.32c0,4.65-.27,9.33.08,14,.31,4.07-1.26,5.41-5.11,5-1.38-.13-3.73-1.4-3.85,1.38-.09,2.26,2,2.05,3.68,2.3s4.46-1.16,4.86,1.06a43.12,43.12,0,0,1,.05,10.89c-.06.75-1.77.13-2.71.05-.07-.15-.21-.3-.21-.45.24-7.22,0-7.47-7.34-7.07-4.91,1.23-9.54,1.5-12.26-4.1-.94,1.19-.33,2.29-.81,3.18-.27.43-.74,1-1.09.91C286.41,311.68,281.67,313.58,276.87,314Z" transform="translate(-248.89 -242.91)"/><path class="cls-3" d="M326.07,309c.66,0,1.33,0,2,0,2.11-.19,5.36-.08,5.21-2.5-.17-2.71-3.27-1.09-5-1.13-3.11-.05-4.41-1.06-4.18-4.44.33-5-.15-10,.16-15s2.32-9.3,7.6-11.25c4.16-1.53,7.52-.2,10.4,2.74,4.08,4.17,3,9.34-2.31,11.59-1.35.56-3.46.57-2.71,2.63.89,2.42,2.88.82,4.26.36,3.59-1.22,5.29-3.62,7.15-9.49,3.26.85,5.15,2.85,5.41,6.27.23,3.23-.91,5.56-4.31,6.26-1.16.24-1.89.77-1.56,2s1.51,1.08,2.48,1.06c3.16-.08,4.9-2.42,6.61-4.73,3.37,2.86,4.65,6.39,3.74,10.07-1,3.85-.85,7,2.1,9.85a2.82,2.82,0,0,1,.85,2.75,1.61,1.61,0,0,1-1.83-.22c-3.28-3.5-7-5.22-11.78-3.26-.78.31-1.52-.42-2-1.16-.47-.54-.92-2.13-1.22-1.62-3.47,5.91-9,4-14,3.94-2.27-.21-4.59-.19-6.65-1.31C324.54,311.32,324.53,310.78,326.07,309Z" transform="translate(-248.89 -242.91)"/><path class="cls-4" d="M259,298c6.25-24.41,22-39.88,45.83-46.55,29.69-8.3,62.19,8.69,73.5,37.44-.7,1.47-1.46,2.86-3.51,2.21-6.71-13.93-16.71-24.66-31-30.95-31.25-13.78-67.89,2.08-79.54,34.31-.79,2.17-1.55,4.36-2.33,6.54C259.17,301.78,258.21,300.74,259,298Z" transform="translate(-248.89 -242.91)"/><path class="cls-5" d="M348.94,310.86c.23.23.58.7.67.66,6.29-3.37,10.43.13,14.31,4.46a9.52,9.52,0,0,1-.19,5.42c-1.58,5.09-4.38,5.85-8.33,2.27-.84-.77-1.49-2.21-2.75-1.22s-.67,2.42.2,3.54a8.58,8.58,0,0,0,5.45,3.23c2.2.4,4.43,1,4.35,3.8a4.85,4.85,0,0,1-3.35,4.57c-2.27.8-4.66.92-6.28-1.41-1.1-1.58-2-3.38-4.13-1.22-4.51-1.73-8.49,1.63-12.84,1.36-1.8-4.63,3-4.09,4.82-6.25-3.23,0-5.16,2.31-7.55,3.61-4.36-1.36-5.71,3.72-9.17,4.28,0-2.15,0-4.31-.18-6.45-.28-4-.05-7.5,5.54-6.74a1.67,1.67,0,0,0,2-1.69c-.08-1.43-1.56-1.38-2.52-1.92-1.58-.89-4.61,1.89-4.81-1.24-.24-3.81-1.16-7.81.59-11.57l1.3.61c-1.69,3.19,1.44,2.57,2.61,2.89,1.67.46,3.58,0,5.14,1.14C339.47,316.65,344.24,314,348.94,310.86Z" transform="translate(-248.89 -242.91)"/><path class="cls-6" d="M336.06,336a33.71,33.71,0,0,0,4.43-1.81c3-1.74,5.79-1.58,8.4.76.67,3.2,2.36,5.49,5.75,6,1.48.23,2.59.81,2.9,2.27.79,3.71-.61,6.86-3,9.58a8.92,8.92,0,0,1-8.49,3.11c-1.77-.27-2.15-1.88-2.8-3.2-.45-.91-.86-1.93-2.16-1.32a2.09,2.09,0,0,0-1,2.56,7.22,7.22,0,0,0,2.17,3.83c.94.9,2.17,1.73.91,3.29a4.87,4.87,0,0,1-4.35,1.89c-2-.1-1.83-1.53-1.85-2.85a10,10,0,0,0-4-7.65,1.67,1.67,0,1,0-2.43,2.28c.49.67,1.19,1.19,1.63,1.88,1.24,2,2.61,4,1.21,6.42a4.26,4.26,0,0,1-5.24,1.82,5.5,5.5,0,0,1-4.15-5.55c0-7.13.09-14.26.15-21.39,2.49-2.65,4-7.1,9.1-4.87C334.16,334.09,334.75,335.39,336.06,336Z" transform="translate(-248.89 -242.91)"/><path class="cls-7" d="M316.1,339.05l.12,19.44a9.32,9.32,0,0,1-.09,1.49c-.41,2.44-1.39,4.5-4.11,5-1.66.29-3.57.31-4.54-1.27-1.31-2.13-.72-4.42.19-6.67.66-1.62,4.43-3,1.93-4.61-2.68-1.72-4,1.75-5.25,3.8a19.43,19.43,0,0,0-1.22,3.25c-.45,1.24.61,3.24-1.78,3.49a4.8,4.8,0,0,1-4.3-2c-1.67-1.95.52-2.49,1.28-3.52s1.68-2.06,1.71-3.5c0-1,.19-2.14-.93-2.59s-1.79.36-2.12,1.42c-1.34,4.38-4.44,3.76-7.59,2.54-4.14-1.6-6.15-4.82-6.53-9.17-.24-2.73.16-4.51,3.55-5.34,4.55-1.12,5.48-4.4,2.63-7,.69-3,2.93-2.44,5-2.28s4.45,1.36,6.73.18c1.91-.23,2.95,1.12,4,2.34s2.12,1.2,3.23.07c4.34-2.67,5.56-2.27,7.06,2.26C315.39,337.27,315.29,338.33,316.1,339.05Z" transform="translate(-248.89 -242.91)"/><path class="cls-5" d="M316.1,339.05c-.51-.64-1.25-1.2-1.48-1.92-1.24-4-3.37-4.82-6.68-2.11-3.58-.44-4.47-5.34-8.85-5,.34,1,1.78,1.24,1.89,2.27-.52,2.24-1.91,1.26-3.36,1.15-2.84-.23-5.85-2.51-8.57.35-1.7,2.18-3,4.9-6.59,4.19-2.5-.5-4.24-1.64-4.55-4.43s1.07-3.85,3.59-4.23a8.54,8.54,0,0,0,6.43-4.15c.53-.9.81-1.93-.14-2.7-.75-.6-1.53-.27-2.19.37-1.85,1.8-3.85,4.86-6.52,2.39A9.08,9.08,0,0,1,276.87,314c4.46-2.5,9-4.49,14-1.32.17.1.76-.47,1.16-.73,1.94-.54,2.9,1.14,4.27,1.89,3.35,1.84,6.79,1.11,8.64-1.79.83,0,1.65,0,2.47,0,7.39,0,8.84,2.31,5.62,8.95-1.48.41-3.81-.09-3.87,2.11-.08,2.64,2.28,1.61,3.72,1.71,2.58.16,3.27,1.71,3.25,4C316.09,332.17,316.11,335.61,316.1,339.05Z" transform="translate(-248.89 -242.91)"/><path class="cls-8" d="M320.53,394.9c8,0,16,.05,23.93,0,3.31,0,5.65,1.09,5.62,4.72,0,3.43-2.36,5.2-5.5,5.22-16.28.11-32.57.13-48.86-.05-3.18,0-5.92-1.69-5.66-5.56.24-3.7,2.9-4.35,6-4.33C304.24,394.93,312.38,394.9,320.53,394.9Z" transform="translate(-248.89 -242.91)"/><path class="cls-9" d="M319.92,432c-6.15,0-12.29,0-18.44,0-3.48,0-6.15-1.5-6.3-4.93-.16-3.95,2.76-5.15,6.43-5.12,12.29.07,24.58,0,36.88,0,3.41,0,6.61.59,6.46,5-.14,4.08-3,5.08-6.59,5.06C332.21,432,326.07,432,319.92,432Z" transform="translate(-248.89 -242.91)"/><path class="cls-10" d="M320,418.18c-6.82,0-13.63,0-20.45,0-3.3,0-5.66-1.12-5.62-4.74s2.51-4.66,5.75-4.65c13.79,0,27.59.05,41.38,0,3.4,0,5.71,1.41,5.68,4.78s-2.44,4.7-5.8,4.64C333.93,418.1,327,418.18,320,418.18Z" transform="translate(-248.89 -242.91)"/><path class="cls-11" d="M259,298c.12,1.85,1,2.93,3,3-1.53,10.85-2.11,21.64,2,32.14,1.86,4.71,3.46,9.55,6.3,13.81a2,2,0,0,1-3,0C258.21,331.72,253.64,315.7,259,298Z" transform="translate(-248.89 -242.91)"/><path class="cls-12" d="M333.64,435.2c-2.63,5.94-6.93,8.42-12.4,8.62-5.25.2-9.67-3.32-11.5-8.62Z" transform="translate(-248.89 -242.91)"/><path class="cls-13" d="M374.82,291.09l3.51-2.21c6.08,13.82,7.38,27.82,1.6,42.09-1.56.23-2.34-.3-1.94-2C381.3,316,379.66,303.41,374.82,291.09Z" transform="translate(-248.89 -242.91)"/><path class="cls-14" d="M267.34,347l3,0c8.66,14,18.08,27.64,22.91,43.75C285.45,375.58,275.47,361.83,267.34,347Z" transform="translate(-248.89 -242.91)"/><path class="cls-15" d="M378,329l1.94,2c-1.81,8.36-6.48,15.38-10.71,22.58-2.91,4.93-6.24,9.63-9.37,14.43-1.19.68-2,.7-1.88-1,2.27-5.53,6-10.17,9.09-15.25C371.41,344.46,374.73,336.75,378,329Z" transform="translate(-248.89 -242.91)"/><path class="cls-16" d="M358,367a1.92,1.92,0,0,0,1.88,1L347.53,391.3l-1.5-.79C349.45,382.39,352.64,374.17,358,367Z" transform="translate(-248.89 -242.91)"/><path class="cls-17" d="M304.93,312c2.05,2.6.38,3.48-1.89,4-4.56,1-8.07-.8-11-4.1a23.29,23.29,0,0,1-.91-2.75c-.2-1-.18-2.08,1.07-2.39s1.46.76,2,1.62C297.24,313.67,299,314.2,304.93,312Z" transform="translate(-248.89 -242.91)"/><path class="cls-18" d="M348.94,310.86c-2.61,4.25-6.33,6-11.31,5.28-2-.3-3.5-.94-3.81-3.15,1.28-1.8,2.63-.35,3.93-.07,3.44.73,6.15-.18,7.88-3.38.63-1.15.47-3.47,2.55-2.68C349.88,307.5,348.81,309.48,348.94,310.86Z" transform="translate(-248.89 -242.91)"/><path class="cls-19" d="M336.06,336c-4.79,2.72-2.72-1.14-2.81-2.92,1.38-3.42,4.79-3.7,7.61-4.85a1.94,1.94,0,0,1,2.8,1.29c.27,1.25-1.05,1.55-1.91,1.93C339.45,332.49,336.28,332.39,336.06,336Z" transform="translate(-248.89 -242.91)"/><path class="cls-18" d="M301,332.29c-1.54-.72-3.66-.42-4.47-2.4-.11-.29.27-1,.61-1.22,2-1.41,3.78.08,5.47.79,2.51,1,3.86,3.42,5.35,5.56-.43,2.35-1.55,3-3.18,1C303.63,334.61,303,332.81,301,332.29Z" transform="translate(-248.89 -242.91)"/></svg>