<?xml version="1.0" encoding="UTF-8"?>
<svg width="30px" height="40px" viewBox="0 0 30 40" version="1.1" xmlns="http://www.w3.org/2000/svg" xmlns:xlink="http://www.w3.org/1999/xlink">
    <!-- Generator: Sketch 52.5 (67469) - http://www.bohemiancoding.com/sketch -->
    <title>icons/steps</title>
    <desc>Created with Sketch.</desc>
    <g id="App-Screens" stroke="none" stroke-width="1" fill="none" fill-rule="evenodd">
        <g id="iPhone-7-–-Home-Screen" transform="translate(-23.000000, -261.000000)" fill="#FFFFFF" fill-rule="nonzero">
            <g id="Steps" transform="translate(0.000000, 233.000000)">
                <g id="icons/steps" transform="translate(23.000000, 28.000000)">
                    <path d="M10.9121989,32.0951725 C5.52140212,34.1907901 3.84610588,29.3567495 3.54601699,23.584701 L11.8128657,22.0586882 C11.3787371,25.0771135 14.8165554,30.5771597 10.9121989,32.0951725 Z M8.37664787,0.253705135 C4.07897485,-1.40990883 -1.45946569,5.3237477 0.353471321,14.1326217 C0.917638433,16.8754447 2.83260567,19.4834666 3.38837029,22.2066894 L12.3082124,20.5598756 C15.2078714,7.94536971 12.3738319,1.80091813 8.37664787,0.253705135 Z M19.0878206,39.5016347 C24.4786174,41.5972522 26.1535136,36.7632117 26.4536025,30.9911632 L18.1867537,29.4651504 C18.6212824,32.4835757 15.183064,37.9836219 19.0878206,39.5016347 Z M17.691407,27.9659378 L26.6112492,29.6127516 C27.1674139,26.8895288 29.0823811,24.2819069 29.6465482,21.5386838 C31.4594853,12.7298099 25.9206446,5.99615335 21.6229716,7.65976732 C17.6257876,9.20738031 14.7917481,15.3518319 17.691407,27.9659378 Z" id="steps-icon"></path>
                </g>
            </g>
        </g>
    </g>
</svg>